<mxfile host="app.diagrams.net" modified="2022-01-13T09:56:20.910Z" agent="5.0 (Macintosh; Intel Mac OS X 10_15_7) AppleWebKit/537.36 (KHTML, like Gecko) Chrome/97.0.4692.71 Safari/537.36" etag="a9uzKZWf6fO3ecJ8psMH" version="16.2.6" type="github">
  <diagram id="T1nonmL9uDLy1F2gQ8E5" name="Page-1">
    <mxGraphModel dx="1018" dy="658" grid="1" gridSize="10" guides="1" tooltips="1" connect="1" arrows="1" fold="1" page="1" pageScale="1" pageWidth="827" pageHeight="1169" math="0" shadow="0">
      <root>
        <mxCell id="0" />
        <mxCell id="1" parent="0" />
        <mxCell id="m27eQpAxXUT8DKUWpQ59-1" value="aaaaaa" style="rounded=0;whiteSpace=wrap;html=1;sketch=1;" vertex="1" parent="1">
          <mxGeometry x="180" y="60" width="120" height="60" as="geometry" />
        </mxCell>
        <mxCell id="m27eQpAxXUT8DKUWpQ59-2" value="" style="ellipse;whiteSpace=wrap;html=1;sketch=1;" vertex="1" parent="1">
          <mxGeometry x="180" y="220" width="120" height="80" as="geometry" />
        </mxCell>
        <mxCell id="m27eQpAxXUT8DKUWpQ59-5" value="" style="curved=1;endArrow=classic;html=1;rounded=0;exitX=0.45;exitY=1.05;exitDx=0;exitDy=0;exitPerimeter=0;entryX=0.5;entryY=0;entryDx=0;entryDy=0;sketch=1;" edge="1" parent="1" source="m27eQpAxXUT8DKUWpQ59-1" target="m27eQpAxXUT8DKUWpQ59-2">
          <mxGeometry width="50" height="50" relative="1" as="geometry">
            <mxPoint x="390" y="320" as="sourcePoint" />
            <mxPoint x="440" y="270" as="targetPoint" />
            <Array as="points">
              <mxPoint x="290" y="140" />
              <mxPoint x="300" y="170" />
              <mxPoint x="240" y="160" />
            </Array>
          </mxGeometry>
        </mxCell>
      </root>
    </mxGraphModel>
  </diagram>
</mxfile>
